<?xml version="1.0" standalone="no"?>
<!DOCTYPE svg PUBLIC "-//W3C//DTD SVG 20010904//EN"
 "http://www.w3.org/TR/2001/REC-SVG-20010904/DTD/svg10.dtd">
<svg version="1.0" xmlns="http://www.w3.org/2000/svg"
 width="1280.000000pt" height="853.000000pt" viewBox="0 0 1280.000000 853.000000"
 preserveAspectRatio="xMidYMid meet">
<g transform="translate(0.000000,853.000000) scale(0.100000,-0.100000)"
fill="#000000" stroke="none">
<path d="M9447 7605 c-753 -85 -1371 -156 -1374 -159 -3 -3 37 -117 89 -253
53 -136 94 -253 91 -259 -2 -7 -32 -22 -66 -34 -99 -35 -298 -133 -425 -209
-169 -100 -296 -191 -525 -374 -299 -240 -469 -342 -683 -412 -180 -60 -329
-81 -719 -105 -794 -49 -1485 -324 -2115 -840 -471 -385 -682 -468 -1280 -500
-302 -16 -506 -44 -740 -101 -167 -41 -370 -108 -377 -125 -3 -7 21 -79 52
-160 52 -131 60 -145 79 -141 11 2 62 16 111 31 142 43 294 64 567 81 139 9
305 22 368 31 617 79 1134 304 1640 714 332 269 496 372 745 465 212 79 411
117 720 135 586 34 996 135 1427 351 235 118 428 247 722 483 218 175 330 253
444 310 112 56 173 78 186 67 6 -5 54 -120 106 -255 52 -135 98 -246 101 -246
7 0 2262 1631 2284 1651 5 5 -5 9 -25 8 -19 -1 -651 -70 -1403 -154z"/>
<path d="M9603 6387 c-120 -42 -188 -109 -229 -223 l-24 -65 0 -2519 0 -2520
625 0 625 0 -2 2543 -3 2542 -28 57 c-35 72 -119 149 -195 180 -55 22 -68 23
-382 25 -313 2 -327 1 -387 -20z"/>
<path d="M8109 5904 c-103 -31 -189 -114 -228 -219 l-21 -56 0 -2284 0 -2285
625 0 625 0 0 2278 c0 2263 0 2279 -20 2338 -39 112 -111 185 -223 224 -52 18
-82 20 -384 19 -254 0 -338 -4 -374 -15z"/>
<path d="M6603 5416 c-35 -13 -71 -29 -80 -37 -76 -57 -112 -107 -142 -199
-21 -63 -21 -69 -21 -2092 l0 -2028 630 0 630 0 0 2026 c0 2008 0 2027 -20
2095 -35 116 -115 199 -231 238 -59 20 -83 21 -383 20 -310 0 -323 -1 -383
-23z"/>
<path d="M5111 4720 c-113 -41 -185 -116 -221 -229 -20 -62 -20 -90 -20 -1747
l0 -1684 625 0 625 0 -2 1708 -3 1707 -26 56 c-37 79 -90 133 -167 171 l-67
33 -345 2 c-322 3 -349 1 -399 -17z"/>
<path d="M3658 3965 c-127 -35 -220 -117 -257 -227 -21 -62 -21 -67 -21 -1370
l0 -1308 625 0 625 0 -2 1318 -3 1317 -23 56 c-44 109 -147 192 -270 218 -77
16 -613 13 -674 -4z"/>
<path d="M2145 3276 c-110 -35 -196 -112 -237 -214 l-23 -57 -3 -972 -2 -973
630 0 630 0 -2 973 -3 972 -23 56 c-26 64 -87 139 -142 174 -80 51 -119 55
-464 54 -230 0 -332 -4 -361 -13z"/>
</g>
</svg>
