<?xml version="1.0" standalone="no"?>
<!DOCTYPE svg PUBLIC "-//W3C//DTD SVG 20010904//EN"
 "http://www.w3.org/TR/2001/REC-SVG-20010904/DTD/svg10.dtd">
<svg version="1.0" xmlns="http://www.w3.org/2000/svg"
 width="1280.000000pt" height="708.000000pt" viewBox="0 0 1280.000000 708.000000"
 preserveAspectRatio="xMidYMid meet">
<g transform="translate(0.000000,708.000000) scale(0.100000,-0.100000)"
fill="#000000" stroke="none">
<path d="M1740 7068 c-181 -31 -260 -59 -260 -92 0 -8 83 -133 185 -277 l185
-263 0 -308 0 -308 -296 0 -295 0 -58 -55 -58 -55 -310 0 -310 0 -214 -227
c-118 -124 -235 -249 -261 -277 l-48 -50 0 -118 0 -118 493 -2 492 -3 3 -2442
2 -2443 5353 -2 5352 -3 50 44 c28 24 85 78 127 119 l78 74 0 2329 0 2329 162
0 162 0 50 54 c232 248 461 486 468 486 4 0 8 56 8 125 l0 125 -337 2 -338 3
-5 50 -5 50 -4557 3 -4558 2 0 216 0 216 183 259 c100 143 182 267 182 276 0
24 -43 51 -115 70 -95 26 -476 26 -570 0 -68 -18 -113 -44 -118 -68 -1 -8 81
-133 183 -278 l185 -264 0 -213 0 -214 -505 0 -505 0 0 309 0 309 185 262
c102 144 185 268 185 276 0 23 -59 53 -135 68 -186 38 -296 44 -415 24z"/>
</g>
</svg>
