<?xml version="1.0" standalone="no"?>
<!DOCTYPE svg PUBLIC "-//W3C//DTD SVG 20010904//EN"
 "http://www.w3.org/TR/2001/REC-SVG-20010904/DTD/svg10.dtd">
<svg version="1.0" xmlns="http://www.w3.org/2000/svg"
 width="1276.000000pt" height="1280.000000pt" viewBox="0 0 1276.000000 1280.000000"
 preserveAspectRatio="xMidYMid meet">
<g transform="translate(0.000000,1280.000000) scale(0.100000,-0.100000)"
fill="#000000" stroke="none">
<path d="M7323 12547 c-17 -145 -38 -244 -84 -382 -121 -365 -360 -657 -716
-878 -197 -122 -337 -178 -553 -221 -290 -59 -513 -73 -1301 -86 -1018 -17
-1223 -37 -1609 -162 -791 -256 -1387 -706 -1539 -1163 -43 -133 -56 -222 -56
-405 1 -315 72 -573 219 -794 61 -92 200 -230 294 -295 35 -24 94 -70 130
-104 209 -189 532 -334 925 -412 168 -33 407 -68 415 -60 2 2 -16 37 -41 77
-64 102 -131 247 -163 353 -25 82 -28 105 -28 250 -1 140 2 170 23 245 68 236
175 426 318 560 161 153 346 237 591 272 62 8 251 11 648 9 564 -2 711 3 894
35 102 18 507 125 715 189 556 173 862 389 1032 730 180 359 265 884 235 1447
-14 259 -61 690 -76 705 -2 2 -8 -43 -15 -99 -6 -57 -20 -146 -31 -198 -33
-154 -103 -352 -119 -334 -4 5 -13 95 -20 199 -16 264 -54 602 -70 617 -4 5
-12 -38 -18 -95z"/>
<path d="M10271 8144 c-772 -105 -1421 -666 -1636 -1414 -52 -182 -67 -285
-72 -500 -11 -430 81 -753 333 -1180 291 -489 771 -835 1314 -945 308 -63 625
-54 920 26 528 142 980 503 1238 989 277 520 304 1156 75 1700 -46 108 -178
349 -251 459 -307 463 -807 780 -1359 861 -164 24 -403 25 -562 4z"/>
<path d="M3570 6744 c-824 -58 -1580 -345 -2220 -843 -528 -411 -961 -975
-1214 -1579 -56 -133 -116 -295 -116 -313 0 -5 65 -9 150 -9 124 0 152 -3 156
-15 3 -8 -8 -53 -24 -99 -17 -46 -28 -87 -25 -90 9 -9 7581 -7 7587 2 2 4 -19
72 -49 150 -150 399 -355 762 -614 1086 -211 265 -393 442 -741 720 -278 223
-312 248 -450 338 -534 350 -1099 554 -1750 634 -119 14 -572 26 -690 18z"/>
<path d="M10190 3844 c-337 -15 -626 -67 -860 -157 -197 -74 -385 -206 -526
-367 -303 -348 -510 -879 -614 -1580 -11 -74 -20 -138 -20 -142 0 -10 -104
-66 -192 -102 -87 -36 -202 -68 -302 -86 -78 -13 -298 -13 -389 1 -238 36
-578 153 -783 270 -120 69 -262 251 -370 474 -53 111 -114 279 -114 316 0 19
16 19 925 19 l925 0 0 390 0 389 -122 3 -123 3 -5 100 -5 100 -3808 3 -3807 2
0 -375 0 -374 128 -3 127 -3 3 -80 c1 -44 4 -90 7 -102 l5 -23 1920 0 1920 0
4 -22 c3 -13 12 -70 21 -128 123 -810 408 -1511 833 -2045 84 -105 96 -115
146 -115 40 -1 43 -3 121 -105 l80 -104 3701 0 3702 -1 5 33 c14 76 32 438 32
622 0 392 -73 1177 -141 1510 -51 256 -142 497 -283 757 -110 204 -251 366
-400 463 -36 24 -79 58 -96 75 -47 51 -182 148 -260 187 -174 88 -423 146
-760 177 -165 15 -493 26 -625 20z"/>
</g>
</svg>
