<?xml version="1.0" standalone="no"?>
<!DOCTYPE svg PUBLIC "-//W3C//DTD SVG 20010904//EN"
 "http://www.w3.org/TR/2001/REC-SVG-20010904/DTD/svg10.dtd">
<svg version="1.0" xmlns="http://www.w3.org/2000/svg"
 width="1102.000000pt" height="1280.000000pt" viewBox="0 0 1102.000000 1280.000000"
 preserveAspectRatio="xMidYMid meet">
<g transform="translate(0.000000,1280.000000) scale(0.100000,-0.100000)"
fill="#000000" stroke="none">
<path d="M3070 12779 c-288 -31 -518 -75 -745 -144 -606 -183 -1107 -475
-1474 -860 -351 -368 -608 -918 -746 -1595 -35 -171 -62 -382 -85 -660 -22
-270 -25 -425 -10 -563 5 -51 14 -157 20 -237 13 -171 22 -245 61 -480 64
-388 100 -512 289 -975 115 -280 160 -407 200 -562 76 -291 149 -737 190
-1148 42 -426 61 -1046 42 -1355 -20 -324 -50 -423 -362 -1225 -126 -321 -200
-565 -235 -770 -25 -145 -23 -356 4 -460 80 -303 312 -536 772 -774 173 -89
656 -311 860 -394 545 -223 1147 -381 1799 -472 283 -39 508 -61 845 -81 484
-28 637 -29 855 -5 667 74 1155 220 1414 423 126 99 165 218 181 558 4 69 13
184 20 255 8 72 26 245 40 385 52 530 102 805 190 1059 50 144 99 246 206 428
325 554 721 1144 1464 2183 393 549 666 938 890 1265 109 160 269 391 355 515
288 415 419 617 539 836 203 371 300 676 341 1064 6 58 15 146 20 197 6 50 10
130 10 178 0 48 -4 128 -10 178 -5 51 -14 139 -20 197 -51 490 -206 906 -435
1170 -208 240 -524 425 -882 515 -168 42 -322 58 -568 58 -319 0 -527 -27
-860 -112 -82 -22 -169 -42 -193 -46 -41 -7 -43 -6 -54 27 -23 67 -97 198
-145 260 -118 147 -289 251 -508 307 -191 50 -246 53 -885 61 -657 8 -670 9
-893 70 -173 48 -318 110 -729 311 -648 317 -798 368 -1236 419 -205 24 -310
24 -532 -1z m620 -193 c270 -34 510 -99 763 -207 75 -33 198 -84 272 -114 172
-70 304 -136 381 -191 72 -50 156 -141 152 -162 -2 -8 -35 -27 -74 -42 -364
-139 -725 -480 -1000 -942 -215 -363 -374 -773 -453 -1173 -36 -182 -46 -276
-67 -645 -25 -432 -9 -609 69 -738 37 -63 99 -122 105 -102 3 7 -1 74 -9 149
-19 191 -16 669 5 886 103 1050 467 1825 1052 2237 353 249 934 391 1528 375
376 -10 671 -72 941 -197 587 -271 818 -868 714 -1845 -25 -237 -84 -428 -209
-680 -98 -199 -204 -365 -452 -712 -181 -252 -279 -396 -350 -513 -70 -116
-130 -230 -126 -241 5 -15 154 64 232 123 415 314 904 1161 1035 1793 28 139
35 292 21 475 -6 85 -14 250 -17 365 -4 185 -3 222 15 307 28 134 71 217 157
303 101 101 218 159 420 209 184 45 312 59 510 53 161 -4 192 -8 300 -36 130
-35 286 -104 385 -171 354 -240 601 -669 714 -1240 50 -251 75 -608 57 -810
-29 -319 -244 -959 -458 -1360 -53 -100 -567 -934 -811 -1315 -382 -598 -726
-1074 -1037 -1435 -45 -52 -142 -174 -215 -270 -330 -435 -547 -647 -738 -721
-82 -32 -190 -32 -255 0 -62 30 -133 100 -157 154 -38 83 -17 208 57 337 102
177 277 453 613 965 204 311 410 641 410 658 0 19 -89 -43 -168 -118 -148
-140 -243 -275 -472 -675 -247 -430 -386 -612 -580 -754 -135 -100 -236 -131
-390 -123 -299 17 -619 212 -726 443 -37 79 -47 154 -41 304 11 252 98 528
275 876 82 160 69 167 -40 20 -81 -109 -124 -203 -218 -481 -87 -256 -153
-398 -222 -481 -166 -199 -329 -223 -768 -114 -64 16 -194 46 -290 66 -295 61
-428 113 -526 205 -97 92 -120 191 -111 464 11 295 -20 668 -79 959 -13 66
-25 121 -27 122 -1 1 -2 -187 -2 -419 0 -392 -2 -432 -23 -565 -43 -270 -102
-400 -214 -473 -262 -169 -847 -136 -1097 61 -84 67 -96 105 -120 380 -52 595
-62 709 -69 760 l-8 55 -17 -72 c-21 -87 -37 -268 -37 -413 0 -228 -34 -438
-87 -547 -52 -105 -193 -224 -321 -270 -80 -29 -168 -31 -221 -4 -146 75 -191
292 -190 906 1 358 -29 560 -165 1102 -72 285 -88 339 -81 258 99 -1030 136
-1622 115 -1838 -25 -260 -61 -396 -121 -460 -30 -31 -42 -37 -61 -32 -64 20
-109 108 -167 325 -38 146 -63 291 -96 555 -61 495 -85 593 -288 1175 -220
633 -266 804 -321 1200 -54 384 -54 848 0 1250 89 660 324 1289 637 1710 90
121 293 329 422 433 494 399 1178 656 1870 701 113 7 450 -3 565 -18z m-925
-7397 c1174 -43 2215 -257 3086 -635 164 -71 1045 -513 1149 -577 145 -89 286
-222 331 -313 35 -72 38 -181 9 -271 -28 -84 -40 -108 -152 -306 -100 -176
-137 -272 -198 -520 -97 -389 -169 -1021 -170 -1479 0 -82 -4 -149 -10 -153
-5 -3 -67 23 -137 58 -1337 670 -3009 1067 -4494 1067 -590 0 -1212 -70 -1695
-191 -114 -29 -118 -26 -109 64 8 95 41 282 66 382 37 145 90 305 219 661 249
684 298 916 284 1326 -12 357 28 550 139 667 127 133 344 209 672 235 75 6
702 -3 1010 -15z m81 -3379 c1305 -75 2361 -334 3339 -822 402 -200 539 -330
467 -441 -29 -43 -76 -73 -201 -125 -311 -132 -648 -213 -1026 -248 -210 -20
-659 -14 -865 10 -458 55 -881 145 -1325 281 -237 73 -956 317 -1065 362 -312
129 -510 274 -581 427 -29 61 -31 73 -27 154 2 67 9 98 28 137 67 138 230 225
489 260 119 16 524 19 767 5z"/>
<path d="M3170 11774 c-30 -8 -88 -30 -129 -50 -393 -185 -777 -792 -851
-1342 -22 -159 2 -376 46 -422 12 -12 14 -11 14 12 0 14 9 75 19 134 94 538
358 1054 697 1362 123 113 288 214 424 262 85 30 90 36 44 49 -55 15 -199 12
-264 -5z"/>
<path d="M9300 10467 c0 -2 25 -67 55 -143 180 -450 215 -688 155 -1049 -26
-162 -63 -286 -174 -587 -91 -247 -136 -381 -136 -408 0 -20 44 24 104 105
180 240 301 580 341 964 19 173 19 245 0 406 -32 277 -114 483 -251 635 -35
38 -94 87 -94 77z"/>
</g>
</svg>
